<?xml version="1.0" encoding="UTF-8" standalone="no"?>
<!-- Created with Inkscape (http://www.inkscape.org/) -->

<svg
   width="210mm"
   height="297mm"
   viewBox="0 0 210 297"
   version="1.1"
   id="svg1"
   sodipodi:docname="icon.svg"
   inkscape:version="1.4.2 (ebf0e940d0, 2025-05-08)"
   xmlns:inkscape="http://www.inkscape.org/namespaces/inkscape"
   xmlns:sodipodi="http://sodipodi.sourceforge.net/DTD/sodipodi-0.dtd"
   xmlns="http://www.w3.org/2000/svg"
   xmlns:svg="http://www.w3.org/2000/svg">
  <sodipodi:namedview
     id="namedview1"
     pagecolor="#505050"
     bordercolor="#ffffff"
     borderopacity="1"
     inkscape:showpageshadow="0"
     inkscape:pageopacity="0"
     inkscape:pagecheckerboard="1"
     inkscape:deskcolor="#505050"
     inkscape:document-units="mm"
     inkscape:zoom="21.226768"
     inkscape:cx="183.68317"
     inkscape:cy="67.626875"
     inkscape:window-width="1888"
     inkscape:window-height="1013"
     inkscape:window-x="0"
     inkscape:window-y="0"
     inkscape:window-maximized="1"
     inkscape:current-layer="layer1"
     showguides="true" />
  <defs
     id="defs1" />
  <g
     inkscape:label="Layer 1"
     inkscape:groupmode="layer"
     id="layer1">
    <g
       inkscape:groupmode="layer"
       id="layer5"
       inkscape:label="scaffolding">
      <path
         id="path10"
         style="display:none;fill:#24221c;stroke-width:0.301777"
         d="m 34.417021,19.528007 a 2.1492228,2.1492366 0 0 0 -2.149222,-2.149236 2.1492228,2.1492366 0 0 0 -2.149224,2.149236 2.1492228,2.1492366 0 0 0 2.149224,2.149236 2.1492228,2.1492366 0 0 0 2.149222,-2.149236 z"
         inkscape:label="clock stroke width" />
      <path
         id="path5"
         style="display:none;fill:#24221c;stroke-width:0.186501"
         d="m 47.380207,9.2213063 a 1.3282394,1.328248 0 0 1 -1.328239,1.3282477 1.3282394,1.328248 0 0 1 -1.32824,-1.3282477 1.3282394,1.328248 0 0 1 1.32824,-1.328248 1.3282394,1.328248 0 0 1 1.328239,1.328248 z"
         inkscape:label="hour hand gap" />
      <path
         id="path11"
         style="display:none;fill:#24221c;stroke-width:0.301777"
         d="m 48.201118,19.528265 a 2.1492228,2.1492366 0 0 0 -2.149222,-2.149236 2.1492228,2.1492366 0 0 0 -2.149224,2.149236 2.1492228,2.1492366 0 0 0 2.149224,2.149236 2.1492228,2.1492366 0 0 0 2.149222,-2.149236 z"
         inkscape:label="hour hand circle" />
      <path
         id="path16"
         style="display:none;fill:#24221c;stroke-width:0.229405"
         d="m 47.685684,19.528265 a 1.6337896,1.6338106 0 0 0 -1.633788,-1.63381 1.6337896,1.6338106 0 0 0 -1.63379,1.63381 1.6337896,1.6338106 0 0 0 1.63379,1.63381 1.6337896,1.6338106 0 0 0 1.633788,-1.63381 z"
         inkscape:label="hour hand subtraction" />
      <path
         id="path13"
         style="display:none;fill:#24221c;stroke-width:0.186508"
         d="m 47.380179,19.528265 a 1.3282842,1.3283013 0 0 0 -1.328283,-1.328301 1.3282842,1.3283013 0 0 0 -1.328285,1.328301 1.3282842,1.3283013 0 0 0 1.328285,1.328301 1.3282842,1.3283013 0 0 0 1.328283,-1.328301 z"
         inkscape:label="minute hand circle" />
      <path
         id="path14"
         style="display:none;fill:#24221c;stroke-width:0.115264"
         d="M 46.87286,8.7139607 A 0.8208918,0.82090241 0 0 1 46.051969,9.5348625 0.8208918,0.82090241 0 0 1 45.231077,8.7139607 0.8208918,0.82090241 0 0 1 46.051969,7.8930583 0.8208918,0.82090241 0 0 1 46.87286,8.7139607 Z"
         inkscape:label="minute hand gap" />
    </g>
    <path
       id="path4"
       style="fill:#ffffff;stroke-width:0.264583"
       inkscape:label="clock edges"
       d="M 46.051969 3.5946126 A 15.933596 15.933596 0 0 0 30.118575 19.528524 A 15.933596 15.933596 0 0 0 46.051969 35.461918 A 15.933596 15.933596 0 0 0 61.985364 19.528524 A 15.933596 15.933596 0 0 0 46.051969 3.5946126 z M 46.051969 7.8930583 A 11.635091 11.635091 0 0 1 57.686918 19.528007 A 11.635091 11.635091 0 0 1 46.051969 31.163472 A 11.635091 11.635091 0 0 1 34.417021 19.528007 A 11.635091 11.635091 0 0 1 46.051969 7.8930583 z " />
    <path
       id="path9"
       style="display:inline;fill:#ff2a2a;stroke-width:0.301766"
       inkscape:label="hour hand"
       inkscape:transform-center-y="-3.4119321"
       d="m 45.785636,10.553695 c 0,0 -1.917125,7.852167 -1.88191,9.038588 0.03521,1.186416 1.0256,2.119215 2.21202,2.084001 1.186419,-0.03521 2.119747,-1.0251 2.084533,-2.21152 -0.03521,-1.186421 -2.414643,-8.911069 -2.414643,-8.911069 z m 0.21789,7.341539 a 1.6338106,1.6337896 88.3 0 1 1.681234,1.584313 1.6338106,1.6337896 88.3 0 1 -1.584298,1.68175 1.6338106,1.6337896 88.3 0 1 -1.681764,-1.584814 1.6338106,1.6337896 88.3 0 1 1.584828,-1.681249 z"
       inkscape:transform-center-x="-0.00027565128" />
    <path
       id="path12"
       style="display:inline;fill:#666666;stroke-width:0.186508"
       d="m 45.775254,20.826935 c 0.717569,0.152524 10.051173,0.77856 10.051173,0.77856 0,0 -8.781272,-3.224551 -9.498842,-3.377075 -0.71757,-0.152524 -1.422918,0.305529 -1.57544,1.023089 -0.152521,0.717561 0.30554,1.422902 1.023109,1.575426 z"
       inkscape:label="minute hand"
       sodipodi:nodetypes="scsss"
       inkscape:transform-center-y="0.37452899"
       inkscape:transform-center-x="-4.2227419" />
  </g>
  <g
     inkscape:groupmode="layer"
     id="layer3"
     inkscape:label="Layer 2"
     style="display:none">
    <path
       style="fill:#cccccc;stroke-width:0.264583"
       d="m 73.600468,97.845328 c 3.434713,-2.185726 29.475162,-2.289809 31.556802,0 0.20816,5.308192 -11.160333,15.982172 -11.160333,18.376062 0.208164,4.78778 16.891943,23.93111 15.018463,26.01275 -2.60206,3.43471 -39.304426,2.28981 -40.033001,0 -1.248987,-1.24899 14.649368,-22.11154 15.169779,-26.27483 0,-1.24899 -10.655792,-14.57519 -10.55171,-18.113982 z"
       id="path2"
       sodipodi:nodetypes="ccccccc" />
    <path
       style="fill:#1a1a1a;stroke-width:0.264583"
       d="m 77.088669,96.911816 7.063509,19.047494 -7.560315,27.86026 26.103457,0.0959 -8.698385,-27.69412 6.786095,-19.54516 z"
       id="path3"
       sodipodi:nodetypes="ccccccc" />
  </g>
</svg>
